# xmcd
#
# Track frame offsets:
#	150
#	25838
#	43052
#	72001
#	90267
#	110962
#	142282
#	166236
#	181451
#	202698
#	229278
#	253725
#	286311
#
# Disc length: 4308 seconds
#
# Revision: 1
# Processed by: cddbd v1.5.2PL0 Copyright (c) Steve Scherf et al.
# Submitted via: audiograbber 1.83.01
#
DISCID=b910d20d
DTITLE=Martin Turner´s Wishbone Ash - New Live Dates Volumen One
DYEAR=2006
DGENRE=
TTITLE0=Doctor
TTITLE1=Blind Eye
TTITLE2=Lorelei
TTITLE3=Walking The Reeperbahn
TTITLE4=Outward Bound
TTITLE5=Persephone
TTITLE6=Front Page News
TTITLE7=Runaway
TTITLE8=Baby The Angels Are Here
TTITLE9=Warrior
TTITLE10=Lifeline
TTITLE11=Flesh And Steel
TTITLE12=Standing In The Rain
EXTD=
EXTT0=
EXTT1=
EXTT2=
EXTT3=
EXTT4=
EXTT5=
EXTT6=
EXTT7=
EXTT8=
EXTT9=
EXTT10=
EXTT11=
EXTT12=
PLAYORDER=
